<svg xmlns="http://www.w3.org/2000/svg" width="65.0mm" height="30.0mm" viewBox="0 0 65.0 30.0"><rect width="65.0" height="30.0" fill="white" stroke="black" stroke-width="0.5"/><text x="32.5" y="3.5" font-size="3" text-anchor="middle" fill="#000">golden_rp2040_usb_hid assembly</text><rect x="1.1" y="13.0" width="4" height="4" fill="#dde" stroke="#336" stroke-width="0.3"/><text x="3.1" y="15.8" font-size="2" text-anchor="middle" fill="#000">J1</text><rect x="13.5" y="13.0" width="4" height="4" fill="#dde" stroke="#336" stroke-width="0.3"/><text x="15.5" y="15.8" font-size="2" text-anchor="middle" fill="#000">D1</text><rect x="18.0" y="11.5" width="4" height="4" fill="#dde" stroke="#336" stroke-width="0.3"/><text x="20.0" y="14.3" font-size="2" text-anchor="middle" fill="#000">R1</text><rect x="18.0" y="14.5" width="4" height="4" fill="#dde" stroke="#336" stroke-width="0.3"/><text x="20.0" y="17.3" font-size="2" text-anchor="middle" fill="#000">R2</text><rect x="13.5" y="22.0" width="4" height="4" fill="#dde" stroke="#336" stroke-width="0.3"/><text x="15.5" y="24.8" font-size="2" text-anchor="middle" fill="#000">U1</text><rect x="28.0" y="13.0" width="4" height="4" fill="#dde" stroke="#336" stroke-width="0.3"/><text x="30.0" y="15.8" font-size="2" text-anchor="middle" fill="#000">U2</text><rect x="41.0" y="6.0" width="4" height="4" fill="#dde" stroke="#336" stroke-width="0.3"/><text x="43.0" y="8.8" font-size="2" text-anchor="middle" fill="#000">U3</text><rect x="38.0" y="18.0" width="4" height="4" fill="#dde" stroke="#336" stroke-width="0.3"/><text x="40.0" y="20.8" font-size="2" text-anchor="middle" fill="#000">X1</text><rect x="34.0" y="18.0" width="4" height="4" fill="#dde" stroke="#336" stroke-width="0.3"/><text x="36.0" y="20.8" font-size="2" text-anchor="middle" fill="#000">R3</text><rect x="41.0" y="11.5" width="4" height="4" fill="#dde" stroke="#336" stroke-width="0.3"/><text x="43.0" y="14.3" font-size="2" text-anchor="middle" fill="#000">R4</text><rect x="9.0" y="6.0" width="4" height="4" fill="#dde" stroke="#336" stroke-width="0.3"/><text x="11.0" y="8.8" font-size="2" text-anchor="middle" fill="#000">R5</text><rect x="9.0" y="20.0" width="4" height="4" fill="#dde" stroke="#336" stroke-width="0.3"/><text x="11.0" y="22.8" font-size="2" text-anchor="middle" fill="#000">R6</text><rect x="53.0" y="9.1" width="4" height="4" fill="#dde" stroke="#336" stroke-width="0.3"/><text x="55.0" y="11.9" font-size="2" text-anchor="middle" fill="#000">J2</text><rect x="22.8" y="11.0" width="4" height="4" fill="#dde" stroke="#336" stroke-width="0.3"/><text x="24.8" y="13.8" font-size="2" text-anchor="middle" fill="#000">C1</text><rect x="22.8" y="14.0" width="4" height="4" fill="#dde" stroke="#336" stroke-width="0.3"/><text x="24.8" y="16.8" font-size="2" text-anchor="middle" fill="#000">C2</text><rect x="25.0" y="18.5" width="4" height="4" fill="#dde" stroke="#336" stroke-width="0.3"/><text x="27.0" y="21.3" font-size="2" text-anchor="middle" fill="#000">C3</text><rect x="31.2" y="18.5" width="4" height="4" fill="#dde" stroke="#336" stroke-width="0.3"/><text x="33.2" y="21.3" font-size="2" text-anchor="middle" fill="#000">C4</text><rect x="33.1" y="14.0" width="4" height="4" fill="#dde" stroke="#336" stroke-width="0.3"/><text x="35.1" y="16.8" font-size="2" text-anchor="middle" fill="#000">C5</text><rect x="33.1" y="10.5" width="4" height="4" fill="#dde" stroke="#336" stroke-width="0.3"/><text x="35.1" y="13.3" font-size="2" text-anchor="middle" fill="#000">C6</text><rect x="32.5" y="8.5" width="4" height="4" fill="#dde" stroke="#336" stroke-width="0.3"/><text x="34.5" y="11.3" font-size="2" text-anchor="middle" fill="#000">C7</text><rect x="28.5" y="6.5" width="4" height="4" fill="#dde" stroke="#336" stroke-width="0.3"/><text x="30.5" y="9.3" font-size="2" text-anchor="middle" fill="#000">C8</text><rect x="26.0" y="6.5" width="4" height="4" fill="#dde" stroke="#336" stroke-width="0.3"/><text x="28.0" y="9.3" font-size="2" text-anchor="middle" fill="#000">C9</text><rect x="23.5" y="6.5" width="4" height="4" fill="#dde" stroke="#336" stroke-width="0.3"/><text x="25.5" y="9.3" font-size="2" text-anchor="middle" fill="#000">C10</text><rect x="34.0" y="6.0" width="4" height="4" fill="#dde" stroke="#336" stroke-width="0.3"/><text x="36.0" y="8.8" font-size="2" text-anchor="middle" fill="#000">C11</text><rect x="31.0" y="6.0" width="4" height="4" fill="#dde" stroke="#336" stroke-width="0.3"/><text x="33.0" y="8.8" font-size="2" text-anchor="middle" fill="#000">C12</text><rect x="41.0" y="9.5" width="4" height="4" fill="#dde" stroke="#336" stroke-width="0.3"/><text x="43.0" y="12.3" font-size="2" text-anchor="middle" fill="#000">C13</text><rect x="13.5" y="16.0" width="4" height="4" fill="#dde" stroke="#336" stroke-width="0.3"/><text x="15.5" y="18.8" font-size="2" text-anchor="middle" fill="#000">C14</text><rect x="8.8" y="22.0" width="4" height="4" fill="#dde" stroke="#336" stroke-width="0.3"/><text x="10.8" y="24.8" font-size="2" text-anchor="middle" fill="#000">C15</text><rect x="22.4" y="17.7" width="4" height="4" fill="#dde" stroke="#336" stroke-width="0.3"/><text x="24.4" y="20.5" font-size="2" text-anchor="middle" fill="#000">C16</text><rect x="41.0" y="15.0" width="4" height="4" fill="#dde" stroke="#336" stroke-width="0.3"/><text x="43.0" y="17.8" font-size="2" text-anchor="middle" fill="#000">C17</text><rect x="41.0" y="21.0" width="4" height="4" fill="#dde" stroke="#336" stroke-width="0.3"/><text x="43.0" y="23.8" font-size="2" text-anchor="middle" fill="#000">C18</text><circle cx="2.5" cy="2.5" r="1.10" fill="none" stroke="#666" stroke-width="0.3"/><circle cx="62.5" cy="2.5" r="1.10" fill="none" stroke="#666" stroke-width="0.3"/><circle cx="2.5" cy="27.5" r="1.10" fill="none" stroke="#666" stroke-width="0.3"/><circle cx="62.5" cy="27.5" r="1.10" fill="none" stroke="#666" stroke-width="0.3"/></svg>
