solid 
 facet normal -1.000000e+00  0.000000e+00  0.000000e+00
   outer loop
     vertex  0.000000e+00  0.000000e+00  2.400000e+01
     vertex  0.000000e+00  4.400000e+01  2.600000e+01
     vertex  0.000000e+00  4.400000e+01  2.400000e+01
   endloop
 endfacet
 facet normal -1.000000e+00  0.000000e+00  0.000000e+00
   outer loop
     vertex  0.000000e+00  0.000000e+00  2.600000e+01
     vertex  0.000000e+00  4.400000e+01  2.600000e+01
     vertex  0.000000e+00  0.000000e+00  2.400000e+01
   endloop
 endfacet
 facet normal  0.000000e+00 -1.000000e+00 -0.000000e+00
   outer loop
     vertex  6.200000e+01  0.000000e+00  2.600000e+01
     vertex  0.000000e+00  0.000000e+00  2.400000e+01
     vertex  6.200000e+01  0.000000e+00  2.400000e+01
   endloop
 endfacet
 facet normal -0.000000e+00 -1.000000e+00  0.000000e+00
   outer loop
     vertex  6.200000e+01  0.000000e+00  2.600000e+01
     vertex  0.000000e+00  0.000000e+00  2.600000e+01
     vertex  0.000000e+00  0.000000e+00  2.400000e+01
   endloop
 endfacet
 facet normal  0.000000e+00  0.000000e+00  1.000000e+00
   outer loop
     vertex  2.100000e+01  1.320000e+01  2.600000e+01
     vertex  1.850000e+01  1.320000e+01  2.600000e+01
     vertex  0.000000e+00  0.000000e+00  2.600000e+01
   endloop
 endfacet
 facet normal  0.000000e+00  0.000000e+00  1.000000e+00
   outer loop
     vertex  2.600000e+01  1.320000e+01  2.600000e+01
     vertex  2.100000e+01  1.320000e+01  2.600000e+01
     vertex  0.000000e+00  0.000000e+00  2.600000e+01
   endloop
 endfacet
 facet normal  0.000000e+00  0.000000e+00  1.000000e+00
   outer loop
     vertex  2.850000e+01  1.320000e+01  2.600000e+01
     vertex  2.600000e+01  1.320000e+01  2.600000e+01
     vertex  0.000000e+00  0.000000e+00  2.600000e+01
   endloop
 endfacet
 facet normal  0.000000e+00  0.000000e+00  1.000000e+00
   outer loop
     vertex  0.000000e+00  4.400000e+01  2.600000e+01
     vertex  0.000000e+00  0.000000e+00  2.600000e+01
     vertex  1.850000e+01  1.320000e+01  2.600000e+01
   endloop
 endfacet
 facet normal  0.000000e+00  0.000000e+00  1.000000e+00
   outer loop
     vertex  1.850000e+01  3.080000e+01  2.600000e+01
     vertex  0.000000e+00  4.400000e+01  2.600000e+01
     vertex  1.850000e+01  1.320000e+01  2.600000e+01
   endloop
 endfacet
 facet normal  0.000000e+00  0.000000e+00  1.000000e+00
   outer loop
     vertex  2.100000e+01  3.080000e+01  2.600000e+01
     vertex  0.000000e+00  4.400000e+01  2.600000e+01
     vertex  1.850000e+01  3.080000e+01  2.600000e+01
   endloop
 endfacet
 facet normal  0.000000e+00  0.000000e+00  1.000000e+00
   outer loop
     vertex  2.600000e+01  3.080000e+01  2.600000e+01
     vertex  2.100000e+01  3.080000e+01  2.600000e+01
     vertex  2.100000e+01  1.320000e+01  2.600000e+01
   endloop
 endfacet
 facet normal  0.000000e+00  0.000000e+00  1.000000e+00
   outer loop
     vertex  2.600000e+01  3.080000e+01  2.600000e+01
     vertex  2.100000e+01  1.320000e+01  2.600000e+01
     vertex  2.600000e+01  1.320000e+01  2.600000e+01
   endloop
 endfacet
 facet normal  0.000000e+00  0.000000e+00  1.000000e+00
   outer loop
     vertex  2.600000e+01  3.080000e+01  2.600000e+01
     vertex  0.000000e+00  4.400000e+01  2.600000e+01
     vertex  2.100000e+01  3.080000e+01  2.600000e+01
   endloop
 endfacet
 facet normal  0.000000e+00  0.000000e+00  1.000000e+00
   outer loop
     vertex  2.850000e+01  3.080000e+01  2.600000e+01
     vertex  0.000000e+00  4.400000e+01  2.600000e+01
     vertex  2.600000e+01  3.080000e+01  2.600000e+01
   endloop
 endfacet
 facet normal  0.000000e+00  0.000000e+00  1.000000e+00
   outer loop
     vertex  6.200000e+01  0.000000e+00  2.600000e+01
     vertex  3.600000e+01  1.320000e+01  2.600000e+01
     vertex  3.350000e+01  1.320000e+01  2.600000e+01
   endloop
 endfacet
 facet normal  0.000000e+00  0.000000e+00  1.000000e+00
   outer loop
     vertex  6.200000e+01  0.000000e+00  2.600000e+01
     vertex  4.350000e+01  1.320000e+01  2.600000e+01
     vertex  4.100000e+01  1.320000e+01  2.600000e+01
   endloop
 endfacet
 facet normal  0.000000e+00  0.000000e+00  1.000000e+00
   outer loop
     vertex  6.200000e+01  0.000000e+00  2.600000e+01
     vertex  2.850000e+01  1.320000e+01  2.600000e+01
     vertex  0.000000e+00  0.000000e+00  2.600000e+01
   endloop
 endfacet
 facet normal  0.000000e+00  0.000000e+00  1.000000e+00
   outer loop
     vertex  6.200000e+01  0.000000e+00  2.600000e+01
     vertex  3.350000e+01  1.320000e+01  2.600000e+01
     vertex  2.850000e+01  1.320000e+01  2.600000e+01
   endloop
 endfacet
 facet normal  0.000000e+00  0.000000e+00  1.000000e+00
   outer loop
     vertex  6.200000e+01  0.000000e+00  2.600000e+01
     vertex  4.100000e+01  1.320000e+01  2.600000e+01
     vertex  3.600000e+01  1.320000e+01  2.600000e+01
   endloop
 endfacet
 facet normal  0.000000e+00  0.000000e+00  1.000000e+00
   outer loop
     vertex  3.350000e+01  3.080000e+01  2.600000e+01
     vertex  2.850000e+01  3.080000e+01  2.600000e+01
     vertex  2.850000e+01  1.320000e+01  2.600000e+01
   endloop
 endfacet
 facet normal  0.000000e+00  0.000000e+00  1.000000e+00
   outer loop
     vertex  3.350000e+01  3.080000e+01  2.600000e+01
     vertex  2.850000e+01  1.320000e+01  2.600000e+01
     vertex  3.350000e+01  1.320000e+01  2.600000e+01
   endloop
 endfacet
 facet normal  0.000000e+00  0.000000e+00  1.000000e+00
   outer loop
     vertex  4.100000e+01  3.080000e+01  2.600000e+01
     vertex  3.600000e+01  3.080000e+01  2.600000e+01
     vertex  3.600000e+01  1.320000e+01  2.600000e+01
   endloop
 endfacet
 facet normal  0.000000e+00  0.000000e+00  1.000000e+00
   outer loop
     vertex  4.100000e+01  3.080000e+01  2.600000e+01
     vertex  3.600000e+01  1.320000e+01  2.600000e+01
     vertex  4.100000e+01  1.320000e+01  2.600000e+01
   endloop
 endfacet
 facet normal  0.000000e+00  0.000000e+00  1.000000e+00
   outer loop
     vertex  6.200000e+01  4.400000e+01  2.600000e+01
     vertex  3.350000e+01  3.080000e+01  2.600000e+01
     vertex  3.600000e+01  3.080000e+01  2.600000e+01
   endloop
 endfacet
 facet normal  0.000000e+00  0.000000e+00  1.000000e+00
   outer loop
     vertex  6.200000e+01  4.400000e+01  2.600000e+01
     vertex  4.100000e+01  3.080000e+01  2.600000e+01
     vertex  4.350000e+01  3.080000e+01  2.600000e+01
   endloop
 endfacet
 facet normal  0.000000e+00  0.000000e+00  1.000000e+00
   outer loop
     vertex  6.200000e+01  4.400000e+01  2.600000e+01
     vertex  4.350000e+01  3.080000e+01  2.600000e+01
     vertex  4.350000e+01  1.320000e+01  2.600000e+01
   endloop
 endfacet
 facet normal  0.000000e+00  0.000000e+00  1.000000e+00
   outer loop
     vertex  6.200000e+01  4.400000e+01  2.600000e+01
     vertex  3.600000e+01  3.080000e+01  2.600000e+01
     vertex  4.100000e+01  3.080000e+01  2.600000e+01
   endloop
 endfacet
 facet normal  0.000000e+00  0.000000e+00  1.000000e+00
   outer loop
     vertex  6.200000e+01  4.400000e+01  2.600000e+01
     vertex  4.350000e+01  1.320000e+01  2.600000e+01
     vertex  6.200000e+01  0.000000e+00  2.600000e+01
   endloop
 endfacet
 facet normal  0.000000e+00  0.000000e+00  1.000000e+00
   outer loop
     vertex  6.200000e+01  4.400000e+01  2.600000e+01
     vertex  0.000000e+00  4.400000e+01  2.600000e+01
     vertex  2.850000e+01  3.080000e+01  2.600000e+01
   endloop
 endfacet
 facet normal  0.000000e+00  0.000000e+00  1.000000e+00
   outer loop
     vertex  6.200000e+01  4.400000e+01  2.600000e+01
     vertex  2.850000e+01  3.080000e+01  2.600000e+01
     vertex  3.350000e+01  3.080000e+01  2.600000e+01
   endloop
 endfacet
 facet normal  0.000000e+00  1.000000e+00  0.000000e+00
   outer loop
     vertex  6.200000e+01  4.400000e+01  2.600000e+01
     vertex  6.200000e+01  4.400000e+01  2.400000e+01
     vertex  0.000000e+00  4.400000e+01  2.400000e+01
   endloop
 endfacet
 facet normal  0.000000e+00  1.000000e+00  0.000000e+00
   outer loop
     vertex  6.200000e+01  4.400000e+01  2.600000e+01
     vertex  0.000000e+00  4.400000e+01  2.400000e+01
     vertex  0.000000e+00  4.400000e+01  2.600000e+01
   endloop
 endfacet
 facet normal -0.000000e+00  0.000000e+00 -1.000000e+00
   outer loop
     vertex  2.100000e+01  1.320000e+01  2.400000e+01
     vertex  0.000000e+00  0.000000e+00  2.400000e+01
     vertex  1.850000e+01  1.320000e+01  2.400000e+01
   endloop
 endfacet
 facet normal -0.000000e+00  0.000000e+00 -1.000000e+00
   outer loop
     vertex  2.600000e+01  1.320000e+01  2.400000e+01
     vertex  0.000000e+00  0.000000e+00  2.400000e+01
     vertex  2.100000e+01  1.320000e+01  2.400000e+01
   endloop
 endfacet
 facet normal -0.000000e+00  0.000000e+00 -1.000000e+00
   outer loop
     vertex  2.850000e+01  1.320000e+01  2.400000e+01
     vertex  0.000000e+00  0.000000e+00  2.400000e+01
     vertex  2.600000e+01  1.320000e+01  2.400000e+01
   endloop
 endfacet
 facet normal  0.000000e+00  0.000000e+00 -1.000000e+00
   outer loop
     vertex  0.000000e+00  4.400000e+01  2.400000e+01
     vertex  1.850000e+01  1.320000e+01  2.400000e+01
     vertex  0.000000e+00  0.000000e+00  2.400000e+01
   endloop
 endfacet
 facet normal -0.000000e+00 -0.000000e+00 -1.000000e+00
   outer loop
     vertex  1.850000e+01  3.080000e+01  2.400000e+01
     vertex  1.850000e+01  1.320000e+01  2.400000e+01
     vertex  0.000000e+00  4.400000e+01  2.400000e+01
   endloop
 endfacet
 facet normal  0.000000e+00  0.000000e+00 -1.000000e+00
   outer loop
     vertex  2.100000e+01  3.080000e+01  2.400000e+01
     vertex  1.850000e+01  3.080000e+01  2.400000e+01
     vertex  0.000000e+00  4.400000e+01  2.400000e+01
   endloop
 endfacet
 facet normal -0.000000e+00  0.000000e+00 -1.000000e+00
   outer loop
     vertex  2.600000e+01  3.080000e+01  2.400000e+01
     vertex  2.100000e+01  1.320000e+01  2.400000e+01
     vertex  2.100000e+01  3.080000e+01  2.400000e+01
   endloop
 endfacet
 facet normal  0.000000e+00 -0.000000e+00 -1.000000e+00
   outer loop
     vertex  2.600000e+01  3.080000e+01  2.400000e+01
     vertex  2.600000e+01  1.320000e+01  2.400000e+01
     vertex  2.100000e+01  1.320000e+01  2.400000e+01
   endloop
 endfacet
 facet normal  0.000000e+00  0.000000e+00 -1.000000e+00
   outer loop
     vertex  2.600000e+01  3.080000e+01  2.400000e+01
     vertex  2.100000e+01  3.080000e+01  2.400000e+01
     vertex  0.000000e+00  4.400000e+01  2.400000e+01
   endloop
 endfacet
 facet normal  0.000000e+00  0.000000e+00 -1.000000e+00
   outer loop
     vertex  2.850000e+01  3.080000e+01  2.400000e+01
     vertex  2.600000e+01  3.080000e+01  2.400000e+01
     vertex  0.000000e+00  4.400000e+01  2.400000e+01
   endloop
 endfacet
 facet normal  0.000000e+00  0.000000e+00 -1.000000e+00
   outer loop
     vertex  6.200000e+01  0.000000e+00  2.400000e+01
     vertex  3.350000e+01  1.320000e+01  2.400000e+01
     vertex  3.600000e+01  1.320000e+01  2.400000e+01
   endloop
 endfacet
 facet normal  0.000000e+00  0.000000e+00 -1.000000e+00
   outer loop
     vertex  6.200000e+01  0.000000e+00  2.400000e+01
     vertex  4.100000e+01  1.320000e+01  2.400000e+01
     vertex  4.350000e+01  1.320000e+01  2.400000e+01
   endloop
 endfacet
 facet normal  0.000000e+00  0.000000e+00 -1.000000e+00
   outer loop
     vertex  6.200000e+01  0.000000e+00  2.400000e+01
     vertex  0.000000e+00  0.000000e+00  2.400000e+01
     vertex  2.850000e+01  1.320000e+01  2.400000e+01
   endloop
 endfacet
 facet normal  0.000000e+00  0.000000e+00 -1.000000e+00
   outer loop
     vertex  6.200000e+01  0.000000e+00  2.400000e+01
     vertex  2.850000e+01  1.320000e+01  2.400000e+01
     vertex  3.350000e+01  1.320000e+01  2.400000e+01
   endloop
 endfacet
 facet normal  0.000000e+00  0.000000e+00 -1.000000e+00
   outer loop
     vertex  6.200000e+01  0.000000e+00  2.400000e+01
     vertex  3.600000e+01  1.320000e+01  2.400000e+01
     vertex  4.100000e+01  1.320000e+01  2.400000e+01
   endloop
 endfacet
 facet normal -0.000000e+00  0.000000e+00 -1.000000e+00
   outer loop
     vertex  3.350000e+01  3.080000e+01  2.400000e+01
     vertex  2.850000e+01  1.320000e+01  2.400000e+01
     vertex  2.850000e+01  3.080000e+01  2.400000e+01
   endloop
 endfacet
 facet normal  0.000000e+00 -0.000000e+00 -1.000000e+00
   outer loop
     vertex  3.350000e+01  3.080000e+01  2.400000e+01
     vertex  3.350000e+01  1.320000e+01  2.400000e+01
     vertex  2.850000e+01  1.320000e+01  2.400000e+01
   endloop
 endfacet
 facet normal -0.000000e+00  0.000000e+00 -1.000000e+00
   outer loop
     vertex  4.100000e+01  3.080000e+01  2.400000e+01
     vertex  3.600000e+01  1.320000e+01  2.400000e+01
     vertex  3.600000e+01  3.080000e+01  2.400000e+01
   endloop
 endfacet
 facet normal  0.000000e+00 -0.000000e+00 -1.000000e+00
   outer loop
     vertex  4.100000e+01  3.080000e+01  2.400000e+01
     vertex  4.100000e+01  1.320000e+01  2.400000e+01
     vertex  3.600000e+01  1.320000e+01  2.400000e+01
   endloop
 endfacet
 facet normal  0.000000e+00  0.000000e+00 -1.000000e+00
   outer loop
     vertex  6.200000e+01  4.400000e+01  2.400000e+01
     vertex  3.600000e+01  3.080000e+01  2.400000e+01
     vertex  3.350000e+01  3.080000e+01  2.400000e+01
   endloop
 endfacet
 facet normal  0.000000e+00  0.000000e+00 -1.000000e+00
   outer loop
     vertex  6.200000e+01  4.400000e+01  2.400000e+01
     vertex  4.350000e+01  3.080000e+01  2.400000e+01
     vertex  4.100000e+01  3.080000e+01  2.400000e+01
   endloop
 endfacet
 facet normal  0.000000e+00  0.000000e+00 -1.000000e+00
   outer loop
     vertex  6.200000e+01  4.400000e+01  2.400000e+01
     vertex  4.350000e+01  1.320000e+01  2.400000e+01
     vertex  4.350000e+01  3.080000e+01  2.400000e+01
   endloop
 endfacet
 facet normal  0.000000e+00  0.000000e+00 -1.000000e+00
   outer loop
     vertex  6.200000e+01  4.400000e+01  2.400000e+01
     vertex  4.100000e+01  3.080000e+01  2.400000e+01
     vertex  3.600000e+01  3.080000e+01  2.400000e+01
   endloop
 endfacet
 facet normal  0.000000e+00 -0.000000e+00 -1.000000e+00
   outer loop
     vertex  6.200000e+01  4.400000e+01  2.400000e+01
     vertex  6.200000e+01  0.000000e+00  2.400000e+01
     vertex  4.350000e+01  1.320000e+01  2.400000e+01
   endloop
 endfacet
 facet normal -0.000000e+00  0.000000e+00 -1.000000e+00
   outer loop
     vertex  6.200000e+01  4.400000e+01  2.400000e+01
     vertex  2.850000e+01  3.080000e+01  2.400000e+01
     vertex  0.000000e+00  4.400000e+01  2.400000e+01
   endloop
 endfacet
 facet normal  0.000000e+00  0.000000e+00 -1.000000e+00
   outer loop
     vertex  6.200000e+01  4.400000e+01  2.400000e+01
     vertex  3.350000e+01  3.080000e+01  2.400000e+01
     vertex  2.850000e+01  3.080000e+01  2.400000e+01
   endloop
 endfacet
 facet normal  1.000000e+00  0.000000e+00  0.000000e+00
   outer loop
     vertex  6.200000e+01  0.000000e+00  2.400000e+01
     vertex  6.200000e+01  4.400000e+01  2.400000e+01
     vertex  6.200000e+01  4.400000e+01  2.600000e+01
   endloop
 endfacet
 facet normal  1.000000e+00 -0.000000e+00  0.000000e+00
   outer loop
     vertex  6.200000e+01  0.000000e+00  2.600000e+01
     vertex  6.200000e+01  0.000000e+00  2.400000e+01
     vertex  6.200000e+01  4.400000e+01  2.600000e+01
   endloop
 endfacet
 facet normal  0.000000e+00  1.000000e+00  0.000000e+00
   outer loop
     vertex  2.100000e+01  1.320000e+01  2.600000e+01
     vertex  2.100000e+01  1.320000e+01  2.400000e+01
     vertex  1.850000e+01  1.320000e+01  2.400000e+01
   endloop
 endfacet
 facet normal  0.000000e+00  1.000000e+00  0.000000e+00
   outer loop
     vertex  2.100000e+01  1.320000e+01  2.600000e+01
     vertex  1.850000e+01  1.320000e+01  2.400000e+01
     vertex  1.850000e+01  1.320000e+01  2.600000e+01
   endloop
 endfacet
 facet normal -1.000000e+00  0.000000e+00  0.000000e+00
   outer loop
     vertex  2.100000e+01  1.320000e+01  2.600000e+01
     vertex  2.100000e+01  3.080000e+01  2.400000e+01
     vertex  2.100000e+01  1.320000e+01  2.400000e+01
   endloop
 endfacet
 facet normal -1.000000e+00  0.000000e+00  0.000000e+00
   outer loop
     vertex  2.100000e+01  1.320000e+01  2.600000e+01
     vertex  2.100000e+01  3.080000e+01  2.600000e+01
     vertex  2.100000e+01  3.080000e+01  2.400000e+01
   endloop
 endfacet
 facet normal  1.000000e+00  0.000000e+00  0.000000e+00
   outer loop
     vertex  1.850000e+01  1.320000e+01  2.600000e+01
     vertex  1.850000e+01  1.320000e+01  2.400000e+01
     vertex  1.850000e+01  3.080000e+01  2.400000e+01
   endloop
 endfacet
 facet normal  1.000000e+00 -0.000000e+00  0.000000e+00
   outer loop
     vertex  1.850000e+01  1.320000e+01  2.600000e+01
     vertex  1.850000e+01  3.080000e+01  2.400000e+01
     vertex  1.850000e+01  3.080000e+01  2.600000e+01
   endloop
 endfacet
 facet normal  0.000000e+00 -1.000000e+00 -0.000000e+00
   outer loop
     vertex  2.100000e+01  3.080000e+01  2.600000e+01
     vertex  1.850000e+01  3.080000e+01  2.400000e+01
     vertex  2.100000e+01  3.080000e+01  2.400000e+01
   endloop
 endfacet
 facet normal -0.000000e+00 -1.000000e+00  0.000000e+00
   outer loop
     vertex  2.100000e+01  3.080000e+01  2.600000e+01
     vertex  1.850000e+01  3.080000e+01  2.600000e+01
     vertex  1.850000e+01  3.080000e+01  2.400000e+01
   endloop
 endfacet
 facet normal  0.000000e+00  1.000000e+00  0.000000e+00
   outer loop
     vertex  2.850000e+01  1.320000e+01  2.600000e+01
     vertex  2.850000e+01  1.320000e+01  2.400000e+01
     vertex  2.600000e+01  1.320000e+01  2.400000e+01
   endloop
 endfacet
 facet normal  0.000000e+00  1.000000e+00  0.000000e+00
   outer loop
     vertex  2.850000e+01  1.320000e+01  2.600000e+01
     vertex  2.600000e+01  1.320000e+01  2.400000e+01
     vertex  2.600000e+01  1.320000e+01  2.600000e+01
   endloop
 endfacet
 facet normal -1.000000e+00  0.000000e+00  0.000000e+00
   outer loop
     vertex  2.850000e+01  1.320000e+01  2.600000e+01
     vertex  2.850000e+01  3.080000e+01  2.400000e+01
     vertex  2.850000e+01  1.320000e+01  2.400000e+01
   endloop
 endfacet
 facet normal -1.000000e+00  0.000000e+00  0.000000e+00
   outer loop
     vertex  2.850000e+01  1.320000e+01  2.600000e+01
     vertex  2.850000e+01  3.080000e+01  2.600000e+01
     vertex  2.850000e+01  3.080000e+01  2.400000e+01
   endloop
 endfacet
 facet normal  1.000000e+00  0.000000e+00  0.000000e+00
   outer loop
     vertex  2.600000e+01  1.320000e+01  2.600000e+01
     vertex  2.600000e+01  1.320000e+01  2.400000e+01
     vertex  2.600000e+01  3.080000e+01  2.400000e+01
   endloop
 endfacet
 facet normal  1.000000e+00 -0.000000e+00  0.000000e+00
   outer loop
     vertex  2.600000e+01  1.320000e+01  2.600000e+01
     vertex  2.600000e+01  3.080000e+01  2.400000e+01
     vertex  2.600000e+01  3.080000e+01  2.600000e+01
   endloop
 endfacet
 facet normal  0.000000e+00 -1.000000e+00 -0.000000e+00
   outer loop
     vertex  2.850000e+01  3.080000e+01  2.600000e+01
     vertex  2.600000e+01  3.080000e+01  2.400000e+01
     vertex  2.850000e+01  3.080000e+01  2.400000e+01
   endloop
 endfacet
 facet normal -0.000000e+00 -1.000000e+00  0.000000e+00
   outer loop
     vertex  2.850000e+01  3.080000e+01  2.600000e+01
     vertex  2.600000e+01  3.080000e+01  2.600000e+01
     vertex  2.600000e+01  3.080000e+01  2.400000e+01
   endloop
 endfacet
 facet normal  0.000000e+00  1.000000e+00  0.000000e+00
   outer loop
     vertex  3.600000e+01  1.320000e+01  2.600000e+01
     vertex  3.600000e+01  1.320000e+01  2.400000e+01
     vertex  3.350000e+01  1.320000e+01  2.400000e+01
   endloop
 endfacet
 facet normal  0.000000e+00  1.000000e+00  0.000000e+00
   outer loop
     vertex  3.600000e+01  1.320000e+01  2.600000e+01
     vertex  3.350000e+01  1.320000e+01  2.400000e+01
     vertex  3.350000e+01  1.320000e+01  2.600000e+01
   endloop
 endfacet
 facet normal -1.000000e+00  0.000000e+00  0.000000e+00
   outer loop
     vertex  3.600000e+01  1.320000e+01  2.600000e+01
     vertex  3.600000e+01  3.080000e+01  2.400000e+01
     vertex  3.600000e+01  1.320000e+01  2.400000e+01
   endloop
 endfacet
 facet normal -1.000000e+00  0.000000e+00  0.000000e+00
   outer loop
     vertex  3.600000e+01  1.320000e+01  2.600000e+01
     vertex  3.600000e+01  3.080000e+01  2.600000e+01
     vertex  3.600000e+01  3.080000e+01  2.400000e+01
   endloop
 endfacet
 facet normal  1.000000e+00  0.000000e+00  0.000000e+00
   outer loop
     vertex  3.350000e+01  1.320000e+01  2.600000e+01
     vertex  3.350000e+01  1.320000e+01  2.400000e+01
     vertex  3.350000e+01  3.080000e+01  2.400000e+01
   endloop
 endfacet
 facet normal  1.000000e+00 -0.000000e+00  0.000000e+00
   outer loop
     vertex  3.350000e+01  1.320000e+01  2.600000e+01
     vertex  3.350000e+01  3.080000e+01  2.400000e+01
     vertex  3.350000e+01  3.080000e+01  2.600000e+01
   endloop
 endfacet
 facet normal  0.000000e+00 -1.000000e+00 -0.000000e+00
   outer loop
     vertex  3.600000e+01  3.080000e+01  2.600000e+01
     vertex  3.350000e+01  3.080000e+01  2.400000e+01
     vertex  3.600000e+01  3.080000e+01  2.400000e+01
   endloop
 endfacet
 facet normal -0.000000e+00 -1.000000e+00  0.000000e+00
   outer loop
     vertex  3.600000e+01  3.080000e+01  2.600000e+01
     vertex  3.350000e+01  3.080000e+01  2.600000e+01
     vertex  3.350000e+01  3.080000e+01  2.400000e+01
   endloop
 endfacet
 facet normal  0.000000e+00  1.000000e+00  0.000000e+00
   outer loop
     vertex  4.350000e+01  1.320000e+01  2.600000e+01
     vertex  4.350000e+01  1.320000e+01  2.400000e+01
     vertex  4.100000e+01  1.320000e+01  2.400000e+01
   endloop
 endfacet
 facet normal  0.000000e+00  1.000000e+00  0.000000e+00
   outer loop
     vertex  4.350000e+01  1.320000e+01  2.600000e+01
     vertex  4.100000e+01  1.320000e+01  2.400000e+01
     vertex  4.100000e+01  1.320000e+01  2.600000e+01
   endloop
 endfacet
 facet normal -1.000000e+00  0.000000e+00  0.000000e+00
   outer loop
     vertex  4.350000e+01  1.320000e+01  2.600000e+01
     vertex  4.350000e+01  3.080000e+01  2.400000e+01
     vertex  4.350000e+01  1.320000e+01  2.400000e+01
   endloop
 endfacet
 facet normal -1.000000e+00  0.000000e+00  0.000000e+00
   outer loop
     vertex  4.350000e+01  1.320000e+01  2.600000e+01
     vertex  4.350000e+01  3.080000e+01  2.600000e+01
     vertex  4.350000e+01  3.080000e+01  2.400000e+01
   endloop
 endfacet
 facet normal  0.000000e+00 -1.000000e+00 -0.000000e+00
   outer loop
     vertex  4.350000e+01  3.080000e+01  2.600000e+01
     vertex  4.100000e+01  3.080000e+01  2.400000e+01
     vertex  4.350000e+01  3.080000e+01  2.400000e+01
   endloop
 endfacet
 facet normal -0.000000e+00 -1.000000e+00  0.000000e+00
   outer loop
     vertex  4.350000e+01  3.080000e+01  2.600000e+01
     vertex  4.100000e+01  3.080000e+01  2.600000e+01
     vertex  4.100000e+01  3.080000e+01  2.400000e+01
   endloop
 endfacet
 facet normal  1.000000e+00  0.000000e+00  0.000000e+00
   outer loop
     vertex  4.100000e+01  1.320000e+01  2.600000e+01
     vertex  4.100000e+01  1.320000e+01  2.400000e+01
     vertex  4.100000e+01  3.080000e+01  2.400000e+01
   endloop
 endfacet
 facet normal  1.000000e+00 -0.000000e+00  0.000000e+00
   outer loop
     vertex  4.100000e+01  1.320000e+01  2.600000e+01
     vertex  4.100000e+01  3.080000e+01  2.400000e+01
     vertex  4.100000e+01  3.080000e+01  2.600000e+01
   endloop
 endfacet
endsolid
