<svg xmlns="http://www.w3.org/2000/svg" width="50.0mm" height="35.0mm" viewBox="0 0 50.0 35.0"><rect width="50.0" height="35.0" fill="white" stroke="black" stroke-width="0.5"/><text x="25.0" y="3.5" font-size="3" text-anchor="middle" fill="#000">bench_ble_lipo_sensor_5eab0a5d assembly</text><rect x="10.0" y="2.0" width="4" height="4" fill="#dde" stroke="#336" stroke-width="0.3"/><text x="12.0" y="4.8" font-size="2" text-anchor="middle" fill="#000">J1</text><rect x="15.0" y="2.0" width="4" height="4" fill="#dde" stroke="#336" stroke-width="0.3"/><text x="17.0" y="4.8" font-size="2" text-anchor="middle" fill="#000">F1</text><rect x="22.0" y="2.0" width="4" height="4" fill="#dde" stroke="#336" stroke-width="0.3"/><text x="24.0" y="4.8" font-size="2" text-anchor="middle" fill="#000">Q1</text><rect x="28.0" y="2.0" width="4" height="4" fill="#dde" stroke="#336" stroke-width="0.3"/><text x="30.0" y="4.8" font-size="2" text-anchor="middle" fill="#000">U2</text><rect x="41.0" y="2.0" width="4" height="4" fill="#dde" stroke="#336" stroke-width="0.3"/><text x="43.0" y="4.8" font-size="2" text-anchor="middle" fill="#000">BT1</text><rect x="38.0" y="4.0" width="4" height="4" fill="#dde" stroke="#336" stroke-width="0.3"/><text x="40.0" y="6.8" font-size="2" text-anchor="middle" fill="#000">U3</text><rect x="30.0" y="9.0" width="4" height="4" fill="#dde" stroke="#336" stroke-width="0.3"/><text x="32.0" y="11.8" font-size="2" text-anchor="middle" fill="#000">LD1</text><rect x="23.0" y="26.0" width="4" height="4" fill="#dde" stroke="#336" stroke-width="0.3"/><text x="25.0" y="28.8" font-size="2" text-anchor="middle" fill="#000">U1</text><rect x="8.0" y="22.0" width="4" height="4" fill="#dde" stroke="#336" stroke-width="0.3"/><text x="10.0" y="24.8" font-size="2" text-anchor="middle" fill="#000">U5</text><rect x="4.0" y="26.0" width="4" height="4" fill="#dde" stroke="#336" stroke-width="0.3"/><text x="6.0" y="28.8" font-size="2" text-anchor="middle" fill="#000">J2</text><rect x="8.0" y="11.0" width="4" height="4" fill="#dde" stroke="#336" stroke-width="0.3"/><text x="10.0" y="13.8" font-size="2" text-anchor="middle" fill="#000">R1</text><rect x="13.0" y="11.0" width="4" height="4" fill="#dde" stroke="#336" stroke-width="0.3"/><text x="15.0" y="13.8" font-size="2" text-anchor="middle" fill="#000">R2</text><rect x="36.0" y="23.0" width="4" height="4" fill="#dde" stroke="#336" stroke-width="0.3"/><text x="38.0" y="25.8" font-size="2" text-anchor="middle" fill="#000">R3</text><rect x="35.0" y="2.0" width="4" height="4" fill="#dde" stroke="#336" stroke-width="0.3"/><text x="37.0" y="4.8" font-size="2" text-anchor="middle" fill="#000">R4</text><rect x="23.0" y="10.0" width="4" height="4" fill="#dde" stroke="#336" stroke-width="0.3"/><text x="25.0" y="12.8" font-size="2" text-anchor="middle" fill="#000">C1</text><rect x="25.0" y="17.0" width="4" height="4" fill="#dde" stroke="#336" stroke-width="0.3"/><text x="27.0" y="19.8" font-size="2" text-anchor="middle" fill="#000">C2</text><rect x="42.0" y="8.0" width="4" height="4" fill="#dde" stroke="#336" stroke-width="0.3"/><text x="44.0" y="10.8" font-size="2" text-anchor="middle" fill="#000">C3</text><rect x="17.0" y="17.0" width="4" height="4" fill="#dde" stroke="#336" stroke-width="0.3"/><text x="19.0" y="19.8" font-size="2" text-anchor="middle" fill="#000">C4</text><rect x="10.0" y="8.0" width="4" height="4" fill="#dde" stroke="#336" stroke-width="0.3"/><text x="12.0" y="10.8" font-size="2" text-anchor="middle" fill="#000">D1</text><circle cx="3.5" cy="3.5" r="1.60" fill="none" stroke="#666" stroke-width="0.3"/><circle cx="46.5" cy="3.5" r="1.60" fill="none" stroke="#666" stroke-width="0.3"/><circle cx="3.5" cy="31.5" r="1.60" fill="none" stroke="#666" stroke-width="0.3"/><circle cx="46.5" cy="31.5" r="1.60" fill="none" stroke="#666" stroke-width="0.3"/></svg>
