%TF.GenerationSoftware,KiCad,Pcbnew,10.0.3*%
%TF.CreationDate,2026-06-14T21:27:32+09:00*%
%TF.ProjectId,quadruped_robot_controller,71756164-7275-4706-9564-5f726f626f74,rev?*%
%TF.SameCoordinates,Original*%
%TF.FileFunction,Soldermask,Top*%
%TF.FilePolarity,Negative*%
%FSLAX46Y46*%
G04 Gerber Fmt 4.6, Leading zero omitted, Abs format (unit mm)*
G04 Created by KiCad (PCBNEW 10.0.3) date 2026-06-14 21:27:32*
%MOMM*%
%LPD*%
G01*
G04 APERTURE LIST*
%ADD10C,0.750000*%
G04 APERTURE END LIST*
D10*
%TO.C,D1*%
X74000000Y-5000000D03*
X74000000Y-8000000D03*
%TD*%
%TO.C,C1*%
X24000000Y-76000000D03*
X26000000Y-76000000D03*
%TD*%
%TO.C,J16*%
X3000000Y-82000000D03*
X5000000Y-82000000D03*
X7000000Y-82000000D03*
X9000000Y-82000000D03*
X11000000Y-82000000D03*
X13000000Y-82000000D03*
%TD*%
%TO.C,J12*%
X3000000Y-22000000D03*
X5000000Y-22000000D03*
X7000000Y-22000000D03*
X9000000Y-22000000D03*
X11000000Y-22000000D03*
X13000000Y-22000000D03*
%TD*%
%TO.C,U5*%
X132000000Y-5000000D03*
X134000000Y-5000000D03*
X136000000Y-5000000D03*
%TD*%
%TO.C,J22*%
X155000000Y-82000000D03*
X153000000Y-82000000D03*
X151000000Y-82000000D03*
X149000000Y-82000000D03*
X147000000Y-82000000D03*
X145000000Y-82000000D03*
%TD*%
%TO.C,C8*%
X68000000Y-89000000D03*
X70000000Y-89000000D03*
%TD*%
%TO.C,J14*%
X3000000Y-52000000D03*
X5000000Y-52000000D03*
X7000000Y-52000000D03*
X9000000Y-52000000D03*
X11000000Y-52000000D03*
X13000000Y-52000000D03*
%TD*%
%TO.C,C3*%
X68000000Y-76000000D03*
X70000000Y-76000000D03*
%TD*%
%TO.C,U6*%
X90000000Y-27000000D03*
X92000000Y-27000000D03*
X94000000Y-27000000D03*
X96000000Y-27000000D03*
X98000000Y-27000000D03*
X100000000Y-27000000D03*
%TD*%
%TO.C,J15*%
X3000000Y-67000000D03*
X5000000Y-67000000D03*
X7000000Y-67000000D03*
X9000000Y-67000000D03*
X11000000Y-67000000D03*
X13000000Y-67000000D03*
%TD*%
%TO.C,R2*%
X42000000Y-48000000D03*
X44000000Y-48000000D03*
%TD*%
%TO.C,Q1*%
X56000000Y-5000000D03*
X56000000Y-8000000D03*
X56000000Y-11000000D03*
%TD*%
%TO.C,Q2*%
X124000000Y-48000000D03*
X126000000Y-48000000D03*
X128000000Y-48000000D03*
X130000000Y-48000000D03*
%TD*%
%TO.C,R1*%
X136000000Y-27000000D03*
X138000000Y-27000000D03*
%TD*%
%TO.C,C9*%
X90000000Y-89000000D03*
X92000000Y-89000000D03*
%TD*%
%TO.C,U4*%
X112000000Y-5000000D03*
X112000000Y-8000000D03*
X112000000Y-11000000D03*
%TD*%
%TO.C,J21*%
X155000000Y-67000000D03*
X153000000Y-67000000D03*
X151000000Y-67000000D03*
X149000000Y-67000000D03*
X147000000Y-67000000D03*
X145000000Y-67000000D03*
%TD*%
%TO.C,C2*%
X46000000Y-76000000D03*
X48000000Y-76000000D03*
%TD*%
%TO.C,J11*%
X3000000Y-7000000D03*
X5000000Y-7000000D03*
X7000000Y-7000000D03*
X9000000Y-7000000D03*
X11000000Y-7000000D03*
X13000000Y-7000000D03*
%TD*%
%TO.C,J19*%
X155000000Y-37000000D03*
X153000000Y-37000000D03*
X151000000Y-37000000D03*
X149000000Y-37000000D03*
X147000000Y-37000000D03*
X145000000Y-37000000D03*
%TD*%
%TO.C,C5*%
X112000000Y-76000000D03*
X114000000Y-76000000D03*
%TD*%
%TO.C,F1*%
X38000000Y-5000000D03*
X38000000Y-8000000D03*
%TD*%
%TO.C,J5*%
X22000000Y-27000000D03*
X24000000Y-27000000D03*
X26000000Y-27000000D03*
X28000000Y-27000000D03*
%TD*%
%TO.C,R3*%
X58000000Y-48000000D03*
X60000000Y-48000000D03*
%TD*%
%TO.C,C4*%
X90000000Y-76000000D03*
X92000000Y-76000000D03*
%TD*%
%TO.C,C6*%
X24000000Y-89000000D03*
X26000000Y-89000000D03*
%TD*%
%TO.C,J3*%
X118000000Y-27000000D03*
X120000000Y-27000000D03*
X122000000Y-27000000D03*
%TD*%
%TO.C,C10*%
X112000000Y-89000000D03*
X112000000Y-92000000D03*
%TD*%
%TO.C,J18*%
X155000000Y-22000000D03*
X153000000Y-22000000D03*
X151000000Y-22000000D03*
X149000000Y-22000000D03*
X147000000Y-22000000D03*
X145000000Y-22000000D03*
%TD*%
%TO.C,D2*%
X42000000Y-27000000D03*
X44000000Y-27000000D03*
X46000000Y-27000000D03*
X48000000Y-27000000D03*
X50000000Y-27000000D03*
%TD*%
%TO.C,J17*%
X155000000Y-7000000D03*
X153000000Y-7000000D03*
X151000000Y-7000000D03*
X149000000Y-7000000D03*
X147000000Y-7000000D03*
X145000000Y-7000000D03*
%TD*%
%TO.C,J1*%
X20000000Y-5000000D03*
X20000000Y-8000000D03*
%TD*%
%TO.C,R4*%
X60000000Y-27000000D03*
X62000000Y-27000000D03*
%TD*%
%TO.C,J4*%
X104000000Y-69000000D03*
X106000000Y-69000000D03*
X108000000Y-69000000D03*
X110000000Y-69000000D03*
X112000000Y-69000000D03*
%TD*%
%TO.C,J2*%
X104000000Y-48000000D03*
X106000000Y-48000000D03*
X108000000Y-48000000D03*
%TD*%
%TO.C,U1*%
X70000000Y-37000000D03*
X72000000Y-37000000D03*
X74000000Y-37000000D03*
X76000000Y-37000000D03*
X78000000Y-37000000D03*
X80000000Y-37000000D03*
X82000000Y-37000000D03*
X70000000Y-39000000D03*
X72000000Y-39000000D03*
X74000000Y-39000000D03*
X76000000Y-39000000D03*
X78000000Y-39000000D03*
X80000000Y-39000000D03*
X82000000Y-39000000D03*
X70000000Y-41000000D03*
X72000000Y-41000000D03*
X74000000Y-41000000D03*
X76000000Y-41000000D03*
X78000000Y-41000000D03*
X80000000Y-41000000D03*
X82000000Y-41000000D03*
X70000000Y-43000000D03*
X72000000Y-43000000D03*
X74000000Y-43000000D03*
X76000000Y-43000000D03*
X78000000Y-43000000D03*
X80000000Y-43000000D03*
X82000000Y-43000000D03*
X70000000Y-45000000D03*
X72000000Y-45000000D03*
X74000000Y-45000000D03*
X76000000Y-45000000D03*
X78000000Y-45000000D03*
X80000000Y-45000000D03*
X82000000Y-45000000D03*
X70000000Y-47000000D03*
X72000000Y-47000000D03*
X74000000Y-47000000D03*
X76000000Y-47000000D03*
X78000000Y-47000000D03*
X80000000Y-47000000D03*
X82000000Y-47000000D03*
X70000000Y-49000000D03*
X72000000Y-49000000D03*
X74000000Y-49000000D03*
X76000000Y-49000000D03*
X78000000Y-49000000D03*
X80000000Y-49000000D03*
X82000000Y-49000000D03*
%TD*%
%TO.C,J20*%
X155000000Y-52000000D03*
X153000000Y-52000000D03*
X151000000Y-52000000D03*
X149000000Y-52000000D03*
X147000000Y-52000000D03*
X145000000Y-52000000D03*
%TD*%
%TO.C,U2*%
X22000000Y-48000000D03*
X24000000Y-48000000D03*
X26000000Y-48000000D03*
X28000000Y-48000000D03*
X30000000Y-48000000D03*
%TD*%
%TO.C,C7*%
X46000000Y-89000000D03*
X48000000Y-89000000D03*
%TD*%
%TO.C,J13*%
X3000000Y-37000000D03*
X5000000Y-37000000D03*
X7000000Y-37000000D03*
X9000000Y-37000000D03*
X11000000Y-37000000D03*
X13000000Y-37000000D03*
%TD*%
%TO.C,U3*%
X92000000Y-5000000D03*
X92000000Y-8000000D03*
X92000000Y-11000000D03*
X92000000Y-14000000D03*
%TD*%
M02*
