M48
; DRILL file KiCad 10.0.3 date 2026-06-14T21:27:33
; FORMAT={-:-/ absolute / metric / decimal}
; #@! TF.CreationDate,2026-06-14T21:27:33+09:00
; #@! TF.GenerationSoftware,Kicad,Pcbnew,10.0.3
; #@! TF.FileFunction,MixedPlating,1,4
FMAT,2
METRIC
; #@! TA.AperFunction,Plated,PTH,ViaDrill
T1C0.300
; #@! TA.AperFunction,Plated,PTH,ComponentDrill
T2C0.350
%
G90
G05
T1
X12.333Y-54.42
X13.917Y-33.79
X15.788Y-10.633
X25.45Y-39.351
X39.076Y-38.924
X42.917Y-24.284
X51.817Y-80.944
X54.784Y-80.075
X57.287Y-24.282
X59.396Y-48.639
X66.726Y-48.601
X68.887Y-48.066
X68.887Y-49.524
X73.744Y-51.624
X75.0Y-41.587
X75.931Y-32.996
X77.594Y-34.831
X79.086Y-34.796
X80.652Y-40.394
X83.298Y-52.616
X85.597Y-56.231
X86.241Y-55.587
X87.217Y-75.05
X88.238Y-46.935
X88.323Y-53.524
X91.078Y-56.247
X91.651Y-32.679
X94.392Y-43.457
X96.392Y-42.332
X99.872Y-37.315
X102.237Y-35.06
X103.077Y-67.029
X103.131Y-35.292
X103.903Y-65.832
X104.817Y-42.258
X106.326Y-52.102
X135.067Y-13.035
X135.705Y-37.295
T2
X3.0Y-7.0
X3.0Y-22.0
X3.0Y-37.0
X3.0Y-52.0
X3.0Y-67.0
X3.0Y-82.0
X5.0Y-7.0
X5.0Y-22.0
X5.0Y-37.0
X5.0Y-52.0
X5.0Y-67.0
X5.0Y-82.0
X7.0Y-7.0
X7.0Y-22.0
X7.0Y-37.0
X7.0Y-52.0
X7.0Y-67.0
X7.0Y-82.0
X9.0Y-7.0
X9.0Y-22.0
X9.0Y-37.0
X9.0Y-52.0
X9.0Y-67.0
X9.0Y-82.0
X11.0Y-7.0
X11.0Y-22.0
X11.0Y-37.0
X11.0Y-52.0
X11.0Y-67.0
X11.0Y-82.0
X13.0Y-7.0
X13.0Y-22.0
X13.0Y-37.0
X13.0Y-52.0
X13.0Y-67.0
X13.0Y-82.0
X20.0Y-5.0
X20.0Y-8.0
X22.0Y-27.0
X22.0Y-48.0
X24.0Y-27.0
X24.0Y-48.0
X24.0Y-76.0
X24.0Y-89.0
X26.0Y-27.0
X26.0Y-48.0
X26.0Y-76.0
X26.0Y-89.0
X28.0Y-27.0
X28.0Y-48.0
X30.0Y-48.0
X38.0Y-5.0
X38.0Y-8.0
X42.0Y-27.0
X42.0Y-48.0
X44.0Y-27.0
X44.0Y-48.0
X46.0Y-27.0
X46.0Y-76.0
X46.0Y-89.0
X48.0Y-27.0
X48.0Y-76.0
X48.0Y-89.0
X50.0Y-27.0
X56.0Y-5.0
X56.0Y-8.0
X56.0Y-11.0
X58.0Y-48.0
X60.0Y-27.0
X60.0Y-48.0
X62.0Y-27.0
X68.0Y-76.0
X68.0Y-89.0
X70.0Y-37.0
X70.0Y-39.0
X70.0Y-41.0
X70.0Y-43.0
X70.0Y-45.0
X70.0Y-47.0
X70.0Y-49.0
X70.0Y-76.0
X70.0Y-89.0
X72.0Y-37.0
X72.0Y-39.0
X72.0Y-41.0
X72.0Y-43.0
X72.0Y-45.0
X72.0Y-47.0
X72.0Y-49.0
X74.0Y-5.0
X74.0Y-8.0
X74.0Y-37.0
X74.0Y-39.0
X74.0Y-41.0
X74.0Y-43.0
X74.0Y-45.0
X74.0Y-47.0
X74.0Y-49.0
X76.0Y-37.0
X76.0Y-39.0
X76.0Y-41.0
X76.0Y-43.0
X76.0Y-45.0
X76.0Y-47.0
X76.0Y-49.0
X78.0Y-37.0
X78.0Y-39.0
X78.0Y-41.0
X78.0Y-43.0
X78.0Y-45.0
X78.0Y-47.0
X78.0Y-49.0
X80.0Y-37.0
X80.0Y-39.0
X80.0Y-41.0
X80.0Y-43.0
X80.0Y-45.0
X80.0Y-47.0
X80.0Y-49.0
X82.0Y-37.0
X82.0Y-39.0
X82.0Y-41.0
X82.0Y-43.0
X82.0Y-45.0
X82.0Y-47.0
X82.0Y-49.0
X90.0Y-27.0
X90.0Y-76.0
X90.0Y-89.0
X92.0Y-5.0
X92.0Y-8.0
X92.0Y-11.0
X92.0Y-14.0
X92.0Y-27.0
X92.0Y-76.0
X92.0Y-89.0
X94.0Y-27.0
X96.0Y-27.0
X98.0Y-27.0
X100.0Y-27.0
X104.0Y-48.0
X104.0Y-69.0
X106.0Y-48.0
X106.0Y-69.0
X108.0Y-48.0
X108.0Y-69.0
X110.0Y-69.0
X112.0Y-5.0
X112.0Y-8.0
X112.0Y-11.0
X112.0Y-69.0
X112.0Y-76.0
X112.0Y-89.0
X112.0Y-92.0
X114.0Y-76.0
X118.0Y-27.0
X120.0Y-27.0
X122.0Y-27.0
X124.0Y-48.0
X126.0Y-48.0
X128.0Y-48.0
X130.0Y-48.0
X132.0Y-5.0
X134.0Y-5.0
X136.0Y-5.0
X136.0Y-27.0
X138.0Y-27.0
X145.0Y-7.0
X145.0Y-22.0
X145.0Y-37.0
X145.0Y-52.0
X145.0Y-67.0
X145.0Y-82.0
X147.0Y-7.0
X147.0Y-22.0
X147.0Y-37.0
X147.0Y-52.0
X147.0Y-67.0
X147.0Y-82.0
X149.0Y-7.0
X149.0Y-22.0
X149.0Y-37.0
X149.0Y-52.0
X149.0Y-67.0
X149.0Y-82.0
X151.0Y-7.0
X151.0Y-22.0
X151.0Y-37.0
X151.0Y-52.0
X151.0Y-67.0
X151.0Y-82.0
X153.0Y-7.0
X153.0Y-22.0
X153.0Y-37.0
X153.0Y-52.0
X153.0Y-67.0
X153.0Y-82.0
X155.0Y-7.0
X155.0Y-22.0
X155.0Y-37.0
X155.0Y-52.0
X155.0Y-67.0
X155.0Y-82.0
M30
