<svg xmlns="http://www.w3.org/2000/svg" width="160.0mm" height="100.0mm" viewBox="0 0 160.0 100.0"><rect width="160.0" height="100.0" fill="white" stroke="black" stroke-width="0.5"/><text x="80.0" y="3.5" font-size="3" text-anchor="middle" fill="#000">bench_robotics_controller_5eab0a5d assembly</text><rect x="18.0" y="3.0" width="4" height="4" fill="#dde" stroke="#336" stroke-width="0.3"/><text x="20.0" y="5.8" font-size="2" text-anchor="middle" fill="#000">J1</text><rect x="36.0" y="3.0" width="4" height="4" fill="#dde" stroke="#336" stroke-width="0.3"/><text x="38.0" y="5.8" font-size="2" text-anchor="middle" fill="#000">F1</text><rect x="54.0" y="3.0" width="4" height="4" fill="#dde" stroke="#336" stroke-width="0.3"/><text x="56.0" y="5.8" font-size="2" text-anchor="middle" fill="#000">Q1</text><rect x="72.0" y="3.0" width="4" height="4" fill="#dde" stroke="#336" stroke-width="0.3"/><text x="74.0" y="5.8" font-size="2" text-anchor="middle" fill="#000">D1</text><rect x="90.0" y="3.0" width="4" height="4" fill="#dde" stroke="#336" stroke-width="0.3"/><text x="92.0" y="5.8" font-size="2" text-anchor="middle" fill="#000">U3</text><rect x="110.0" y="16.0" width="4" height="4" fill="#dde" stroke="#336" stroke-width="0.3"/><text x="112.0" y="18.8" font-size="2" text-anchor="middle" fill="#000">U4</text><rect x="130.0" y="16.0" width="4" height="4" fill="#dde" stroke="#336" stroke-width="0.3"/><text x="132.0" y="18.8" font-size="2" text-anchor="middle" fill="#000">U5</text><rect x="68.0" y="35.0" width="4" height="4" fill="#dde" stroke="#336" stroke-width="0.3"/><text x="70.0" y="37.8" font-size="2" text-anchor="middle" fill="#000">U1</text><rect x="20.0" y="46.0" width="4" height="4" fill="#dde" stroke="#336" stroke-width="0.3"/><text x="22.0" y="48.8" font-size="2" text-anchor="middle" fill="#000">U2</text><rect x="88.0" y="25.0" width="4" height="4" fill="#dde" stroke="#336" stroke-width="0.3"/><text x="90.0" y="27.8" font-size="2" text-anchor="middle" fill="#000">U6</text><rect x="138.0" y="93.0" width="4" height="4" fill="#dde" stroke="#336" stroke-width="0.3"/><text x="140.0" y="95.8" font-size="2" text-anchor="middle" fill="#000">J2</text><rect x="122.0" y="46.0" width="4" height="4" fill="#dde" stroke="#336" stroke-width="0.3"/><text x="124.0" y="48.8" font-size="2" text-anchor="middle" fill="#000">Q2</text><rect x="78.0" y="3.0" width="4" height="4" fill="#dde" stroke="#336" stroke-width="0.3"/><text x="80.0" y="5.8" font-size="2" text-anchor="middle" fill="#000">J3</text><rect x="102.0" y="18.0" width="4" height="4" fill="#dde" stroke="#336" stroke-width="0.3"/><text x="104.0" y="20.8" font-size="2" text-anchor="middle" fill="#000">R1</text><rect x="102.0" y="67.0" width="4" height="4" fill="#dde" stroke="#336" stroke-width="0.3"/><text x="104.0" y="69.8" font-size="2" text-anchor="middle" fill="#000">J4</text><rect x="118.0" y="93.0" width="4" height="4" fill="#dde" stroke="#336" stroke-width="0.3"/><text x="120.0" y="95.8" font-size="2" text-anchor="middle" fill="#000">J5</text><rect x="118.0" y="84.0" width="4" height="4" fill="#dde" stroke="#336" stroke-width="0.3"/><text x="120.0" y="86.8" font-size="2" text-anchor="middle" fill="#000">D2</text><rect x="58.0" y="25.0" width="4" height="4" fill="#dde" stroke="#336" stroke-width="0.3"/><text x="60.0" y="27.8" font-size="2" text-anchor="middle" fill="#000">R4</text><rect x="40.0" y="46.0" width="4" height="4" fill="#dde" stroke="#336" stroke-width="0.3"/><text x="42.0" y="48.8" font-size="2" text-anchor="middle" fill="#000">R2</text><rect x="56.0" y="46.0" width="4" height="4" fill="#dde" stroke="#336" stroke-width="0.3"/><text x="58.0" y="48.8" font-size="2" text-anchor="middle" fill="#000">R3</text><rect x="7.0" y="5.0" width="4" height="4" fill="#dde" stroke="#336" stroke-width="0.3"/><text x="9.0" y="7.8" font-size="2" text-anchor="middle" fill="#000">J11</text><rect x="7.0" y="20.0" width="4" height="4" fill="#dde" stroke="#336" stroke-width="0.3"/><text x="9.0" y="22.8" font-size="2" text-anchor="middle" fill="#000">J12</text><rect x="7.0" y="35.0" width="4" height="4" fill="#dde" stroke="#336" stroke-width="0.3"/><text x="9.0" y="37.8" font-size="2" text-anchor="middle" fill="#000">J13</text><rect x="7.0" y="50.0" width="4" height="4" fill="#dde" stroke="#336" stroke-width="0.3"/><text x="9.0" y="52.8" font-size="2" text-anchor="middle" fill="#000">J14</text><rect x="7.0" y="65.0" width="4" height="4" fill="#dde" stroke="#336" stroke-width="0.3"/><text x="9.0" y="67.8" font-size="2" text-anchor="middle" fill="#000">J15</text><rect x="7.0" y="80.0" width="4" height="4" fill="#dde" stroke="#336" stroke-width="0.3"/><text x="9.0" y="82.8" font-size="2" text-anchor="middle" fill="#000">J16</text><rect x="149.0" y="5.0" width="4" height="4" fill="#dde" stroke="#336" stroke-width="0.3"/><text x="151.0" y="7.8" font-size="2" text-anchor="middle" fill="#000">J17</text><rect x="149.0" y="20.0" width="4" height="4" fill="#dde" stroke="#336" stroke-width="0.3"/><text x="151.0" y="22.8" font-size="2" text-anchor="middle" fill="#000">J18</text><rect x="149.0" y="35.0" width="4" height="4" fill="#dde" stroke="#336" stroke-width="0.3"/><text x="151.0" y="37.8" font-size="2" text-anchor="middle" fill="#000">J19</text><rect x="149.0" y="50.0" width="4" height="4" fill="#dde" stroke="#336" stroke-width="0.3"/><text x="151.0" y="52.8" font-size="2" text-anchor="middle" fill="#000">J20</text><rect x="149.0" y="65.0" width="4" height="4" fill="#dde" stroke="#336" stroke-width="0.3"/><text x="151.0" y="67.8" font-size="2" text-anchor="middle" fill="#000">J21</text><rect x="149.0" y="80.0" width="4" height="4" fill="#dde" stroke="#336" stroke-width="0.3"/><text x="151.0" y="82.8" font-size="2" text-anchor="middle" fill="#000">J22</text><rect x="22.0" y="74.0" width="4" height="4" fill="#dde" stroke="#336" stroke-width="0.3"/><text x="24.0" y="76.8" font-size="2" text-anchor="middle" fill="#000">C1</text><rect x="44.0" y="74.0" width="4" height="4" fill="#dde" stroke="#336" stroke-width="0.3"/><text x="46.0" y="76.8" font-size="2" text-anchor="middle" fill="#000">C2</text><rect x="66.0" y="74.0" width="4" height="4" fill="#dde" stroke="#336" stroke-width="0.3"/><text x="68.0" y="76.8" font-size="2" text-anchor="middle" fill="#000">C3</text><rect x="88.0" y="74.0" width="4" height="4" fill="#dde" stroke="#336" stroke-width="0.3"/><text x="90.0" y="76.8" font-size="2" text-anchor="middle" fill="#000">C4</text><rect x="110.0" y="74.0" width="4" height="4" fill="#dde" stroke="#336" stroke-width="0.3"/><text x="112.0" y="76.8" font-size="2" text-anchor="middle" fill="#000">C5</text><rect x="22.0" y="87.0" width="4" height="4" fill="#dde" stroke="#336" stroke-width="0.3"/><text x="24.0" y="89.8" font-size="2" text-anchor="middle" fill="#000">C6</text><rect x="44.0" y="87.0" width="4" height="4" fill="#dde" stroke="#336" stroke-width="0.3"/><text x="46.0" y="89.8" font-size="2" text-anchor="middle" fill="#000">C7</text><rect x="66.0" y="87.0" width="4" height="4" fill="#dde" stroke="#336" stroke-width="0.3"/><text x="68.0" y="89.8" font-size="2" text-anchor="middle" fill="#000">C8</text><rect x="88.0" y="87.0" width="4" height="4" fill="#dde" stroke="#336" stroke-width="0.3"/><text x="90.0" y="89.8" font-size="2" text-anchor="middle" fill="#000">C9</text><rect x="110.0" y="87.0" width="4" height="4" fill="#dde" stroke="#336" stroke-width="0.3"/><text x="112.0" y="89.8" font-size="2" text-anchor="middle" fill="#000">C10</text><circle cx="6.0" cy="6.0" r="1.60" fill="none" stroke="#666" stroke-width="0.3"/><circle cx="154.0" cy="6.0" r="1.60" fill="none" stroke="#666" stroke-width="0.3"/><circle cx="6.0" cy="94.0" r="1.60" fill="none" stroke="#666" stroke-width="0.3"/><circle cx="154.0" cy="94.0" r="1.60" fill="none" stroke="#666" stroke-width="0.3"/></svg>
