G04 HW co-design reference Gerber — F.Cu (centroids only — route deferred to Freerouting)*
%FSLAX46Y46*%
%MOMM*%
%ADD10C,0.800000*%
D10*
X20000000Y5000000D03*
X38000000Y5000000D03*
X56000000Y5000000D03*
X74000000Y5000000D03*
X92000000Y5000000D03*
X112000000Y18000000D03*
X132000000Y18000000D03*
X70000000Y37000000D03*
X22000000Y48000000D03*
X90000000Y27000000D03*
X140000000Y95000000D03*
X124000000Y48000000D03*
X80000000Y5000000D03*
X104000000Y20000000D03*
X104000000Y69000000D03*
X120000000Y95000000D03*
X120000000Y86000000D03*
X60000000Y27000000D03*
X42000000Y48000000D03*
X58000000Y48000000D03*
X9000000Y7000000D03*
X9000000Y22000000D03*
X9000000Y37000000D03*
X9000000Y52000000D03*
X9000000Y67000000D03*
X9000000Y82000000D03*
X151000000Y7000000D03*
X151000000Y22000000D03*
X151000000Y37000000D03*
X151000000Y52000000D03*
X151000000Y67000000D03*
X151000000Y82000000D03*
X24000000Y76000000D03*
X46000000Y76000000D03*
X68000000Y76000000D03*
X90000000Y76000000D03*
X112000000Y76000000D03*
X24000000Y89000000D03*
X46000000Y89000000D03*
X68000000Y89000000D03*
X90000000Y89000000D03*
X112000000Y89000000D03*
M02*
