M48
; DRILL file KiCad 10.0.3 date 2026-06-30T12:11:03
; FORMAT={-:-/ absolute / metric / decimal}
; #@! TF.CreationDate,2026-06-30T12:11:03+09:00
; #@! TF.GenerationSoftware,Kicad,Pcbnew,10.0.3
; #@! TF.FileFunction,MixedPlating,1,2
FMAT,2
METRIC
; #@! TA.AperFunction,Plated,PTH,ViaDrill
T1C0.300
; #@! TA.AperFunction,Plated,PTH,ComponentDrill
T2C0.350
; #@! TA.AperFunction,NonPlated,NPTH,ComponentDrill
T3C3.200
%
G90
G05
T1
X24.212Y-16.033
X25.0Y-13.471
X26.688Y-17.13
X43.01Y-16.325
T2
X6.0Y-28.0
X6.0Y-30.0
X8.0Y-28.0
X10.0Y-13.0
X10.0Y-24.0
X10.0Y-26.0
X10.0Y-28.0
X12.0Y-4.0
X12.0Y-10.0
X12.0Y-13.0
X12.0Y-24.0
X12.0Y-28.0
X14.0Y-4.0
X14.0Y-10.0
X14.0Y-24.0
X14.0Y-28.0
X15.0Y-13.0
X16.0Y-4.0
X16.0Y-10.0
X16.0Y-24.0
X16.0Y-28.0
X17.0Y-4.0
X17.0Y-13.0
X18.0Y-4.0
X18.0Y-10.0
X18.0Y-24.0
X18.0Y-28.0
X19.0Y-4.0
X19.0Y-19.0
X20.0Y-10.0
X20.0Y-24.0
X21.0Y-19.0
X22.0Y-24.0
X24.0Y-4.0
X25.0Y-12.0
X25.0Y-28.0
X25.0Y-30.0
X25.0Y-32.0
X26.0Y-4.0
X27.0Y-12.0
X27.0Y-19.0
X27.0Y-28.0
X27.0Y-30.0
X27.0Y-32.0
X28.0Y-4.0
X29.0Y-19.0
X29.0Y-28.0
X29.0Y-30.0
X29.0Y-32.0
X30.0Y-4.0
X30.0Y-7.0
X30.0Y-10.0
X30.0Y-13.0
X30.0Y-16.0
X30.0Y-19.0
X30.0Y-22.0
X30.0Y-25.0
X31.0Y-28.0
X31.0Y-30.0
X31.0Y-32.0
X32.0Y-11.0
X32.0Y-14.0
X32.0Y-17.0
X32.0Y-20.0
X32.0Y-23.0
X33.0Y-28.0
X33.0Y-30.0
X35.0Y-28.0
X35.0Y-30.0
X37.0Y-4.0
X37.0Y-28.0
X37.0Y-30.0
X38.0Y-25.0
X39.0Y-4.0
X40.0Y-6.0
X40.0Y-9.0
X40.0Y-12.0
X40.0Y-15.0
X40.0Y-18.0
X40.0Y-21.0
X40.0Y-24.0
X40.0Y-25.0
X40.0Y-27.0
X40.0Y-30.0
X43.0Y-4.0
X43.0Y-7.0
X44.0Y-10.0
X44.0Y-13.0
T3
X3.5Y-3.5
X3.5Y-31.5
X46.5Y-3.5
X46.5Y-31.5
M30
