%TF.GenerationSoftware,KiCad,Pcbnew,10.0.3*%
%TF.CreationDate,2026-06-30T12:11:02+09:00*%
%TF.ProjectId,bench_ble_lipo_sensor_5eab0a5d,62656e63-685f-4626-9c65-5f6c69706f5f,rev?*%
%TF.SameCoordinates,Original*%
%TF.FileFunction,Soldermask,Top*%
%TF.FilePolarity,Negative*%
%FSLAX46Y46*%
G04 Gerber Fmt 4.6, Leading zero omitted, Abs format (unit mm)*
G04 Created by KiCad (PCBNEW 10.0.3) date 2026-06-30 12:11:02*
%MOMM*%
%LPD*%
G01*
G04 APERTURE LIST*
%ADD10C,0.750000*%
%ADD11C,3.200000*%
G04 APERTURE END LIST*
D10*
%TO.C,R3*%
X38000000Y-25000000D03*
X40000000Y-25000000D03*
%TD*%
%TO.C,C2*%
X27000000Y-19000000D03*
X29000000Y-19000000D03*
%TD*%
%TO.C,U3*%
X40000000Y-6000000D03*
X40000000Y-9000000D03*
X40000000Y-12000000D03*
X40000000Y-15000000D03*
X40000000Y-18000000D03*
X40000000Y-21000000D03*
X40000000Y-24000000D03*
X40000000Y-27000000D03*
X40000000Y-30000000D03*
%TD*%
%TO.C,U2*%
X30000000Y-4000000D03*
X30000000Y-7000000D03*
X30000000Y-10000000D03*
X30000000Y-13000000D03*
X30000000Y-16000000D03*
X30000000Y-19000000D03*
X30000000Y-22000000D03*
X30000000Y-25000000D03*
%TD*%
%TO.C,Q1*%
X24000000Y-4000000D03*
X26000000Y-4000000D03*
X28000000Y-4000000D03*
%TD*%
%TO.C,LD1*%
X32000000Y-11000000D03*
X32000000Y-14000000D03*
X32000000Y-17000000D03*
X32000000Y-20000000D03*
X32000000Y-23000000D03*
%TD*%
%TO.C,R1*%
X10000000Y-13000000D03*
X12000000Y-13000000D03*
%TD*%
%TO.C,R2*%
X15000000Y-13000000D03*
X17000000Y-13000000D03*
%TD*%
%TO.C,D1*%
X12000000Y-10000000D03*
X14000000Y-10000000D03*
X16000000Y-10000000D03*
X18000000Y-10000000D03*
X20000000Y-10000000D03*
%TD*%
%TO.C,U1*%
X25000000Y-28000000D03*
X27000000Y-28000000D03*
X29000000Y-28000000D03*
X31000000Y-28000000D03*
X33000000Y-28000000D03*
X35000000Y-28000000D03*
X37000000Y-28000000D03*
X25000000Y-30000000D03*
X27000000Y-30000000D03*
X29000000Y-30000000D03*
X31000000Y-30000000D03*
X33000000Y-30000000D03*
X35000000Y-30000000D03*
X37000000Y-30000000D03*
X25000000Y-32000000D03*
X27000000Y-32000000D03*
X29000000Y-32000000D03*
X31000000Y-32000000D03*
%TD*%
%TO.C,C3*%
X44000000Y-10000000D03*
X44000000Y-13000000D03*
%TD*%
%TO.C,R4*%
X37000000Y-4000000D03*
X39000000Y-4000000D03*
%TD*%
%TO.C,J2*%
X6000000Y-28000000D03*
X8000000Y-28000000D03*
X10000000Y-28000000D03*
X12000000Y-28000000D03*
X14000000Y-28000000D03*
X16000000Y-28000000D03*
X18000000Y-28000000D03*
X6000000Y-30000000D03*
%TD*%
%TO.C,C4*%
X19000000Y-19000000D03*
X21000000Y-19000000D03*
%TD*%
D11*
%TO.C,H1*%
X3500000Y-3500000D03*
%TD*%
%TO.C,H4*%
X46500000Y-31500000D03*
%TD*%
D10*
%TO.C,U5*%
X10000000Y-24000000D03*
X12000000Y-24000000D03*
X14000000Y-24000000D03*
X16000000Y-24000000D03*
X18000000Y-24000000D03*
X20000000Y-24000000D03*
X22000000Y-24000000D03*
X10000000Y-26000000D03*
%TD*%
%TO.C,F1*%
X17000000Y-4000000D03*
X19000000Y-4000000D03*
%TD*%
%TO.C,J1*%
X12000000Y-4000000D03*
X14000000Y-4000000D03*
X16000000Y-4000000D03*
X18000000Y-4000000D03*
%TD*%
D11*
%TO.C,H3*%
X3500000Y-31500000D03*
%TD*%
D10*
%TO.C,BT1*%
X43000000Y-4000000D03*
X43000000Y-7000000D03*
%TD*%
%TO.C,C1*%
X25000000Y-12000000D03*
X27000000Y-12000000D03*
%TD*%
D11*
%TO.C,H2*%
X46500000Y-3500000D03*
%TD*%
M02*
