%TF.GenerationSoftware,KiCad,Pcbnew,10.0.3*%
%TF.CreationDate,2026-06-30T12:11:02+09:00*%
%TF.ProjectId,bench_ble_lipo_sensor_5eab0a5d,62656e63-685f-4626-9c65-5f6c69706f5f,rev?*%
%TF.SameCoordinates,Original*%
%TF.FileFunction,Copper,L1,Top*%
%TF.FilePolarity,Positive*%
%FSLAX46Y46*%
G04 Gerber Fmt 4.6, Leading zero omitted, Abs format (unit mm)*
G04 Created by KiCad (PCBNEW 10.0.3) date 2026-06-30 12:11:02*
%MOMM*%
%LPD*%
G01*
G04 APERTURE LIST*
%TA.AperFunction,ComponentPad*%
%ADD10C,0.750000*%
%TD*%
%TA.AperFunction,ViaPad*%
%ADD11C,0.600000*%
%TD*%
%TA.AperFunction,Conductor*%
%ADD12C,0.200000*%
%TD*%
G04 APERTURE END LIST*
D10*
%TO.P,R3,1*%
%TO.N,V3V3*%
X38000000Y-25000000D03*
%TO.P,R3,2*%
%TO.N,LED_BLE*%
X40000000Y-25000000D03*
%TD*%
%TO.P,C2,1*%
%TO.N,V3V3*%
X27000000Y-19000000D03*
%TO.P,C2,2*%
%TO.N,GND*%
X29000000Y-19000000D03*
%TD*%
%TO.P,U3,1*%
%TO.N,I2C_SDA*%
X40000000Y-6000000D03*
%TO.P,U3,2*%
%TO.N,I2C_SCL*%
X40000000Y-9000000D03*
%TO.P,U3,3*%
%TO.N,FUEL_ALRT*%
X40000000Y-12000000D03*
%TO.P,U3,4*%
%TO.N,GND*%
X40000000Y-15000000D03*
%TO.P,U3,5*%
%TO.N,VBAT*%
X40000000Y-18000000D03*
%TO.P,U3,6*%
X40000000Y-21000000D03*
%TO.P,U3,7*%
X40000000Y-24000000D03*
%TO.P,U3,8*%
%TO.N,V3V3*%
X40000000Y-27000000D03*
%TO.P,U3,9*%
%TO.N,VBAT*%
X40000000Y-30000000D03*
%TD*%
%TO.P,U2,1*%
%TO.N,USB_PROT*%
X30000000Y-4000000D03*
%TO.P,U2,2*%
%TO.N,GND*%
X30000000Y-7000000D03*
%TO.P,U2,3*%
%TO.N,V3V3*%
X30000000Y-10000000D03*
%TO.P,U2,4*%
%TO.N,GND*%
X30000000Y-13000000D03*
%TO.P,U2,5*%
%TO.N,VBAT*%
X30000000Y-16000000D03*
%TO.P,U2,6*%
%TO.N,CHG_STAT*%
X30000000Y-19000000D03*
%TO.P,U2,7*%
%TO.N,V3V3*%
X30000000Y-22000000D03*
%TO.P,U2,8*%
%TO.N,CHG_ISET*%
X30000000Y-25000000D03*
%TD*%
%TO.P,Q1,1*%
%TO.N,USB_FUSED*%
X24000000Y-4000000D03*
%TO.P,Q1,2*%
%TO.N,USB_PROT*%
X26000000Y-4000000D03*
%TO.P,Q1,3*%
%TO.N,GND*%
X28000000Y-4000000D03*
%TD*%
%TO.P,LD1,1*%
%TO.N,V3V3*%
X32000000Y-11000000D03*
%TO.P,LD1,2*%
%TO.N,GND*%
X32000000Y-14000000D03*
%TO.P,LD1,3*%
%TO.N,VBAT*%
X32000000Y-17000000D03*
%TO.P,LD1,4*%
%TO.N,GND*%
X32000000Y-20000000D03*
%TO.P,LD1,5*%
%TO.N,V3V3*%
X32000000Y-23000000D03*
%TD*%
%TO.P,R1,1*%
%TO.N,V3V3*%
X10000000Y-13000000D03*
%TO.P,R1,2*%
%TO.N,I2C_SCL*%
X12000000Y-13000000D03*
%TD*%
%TO.P,R2,1*%
%TO.N,V3V3*%
X15000000Y-13000000D03*
%TO.P,R2,2*%
%TO.N,I2C_SDA*%
X17000000Y-13000000D03*
%TD*%
%TO.P,D1,1*%
%TO.N,USB_DP_RAW*%
X12000000Y-10000000D03*
%TO.P,D1,2*%
%TO.N,USB_DP*%
X14000000Y-10000000D03*
%TO.P,D1,3*%
%TO.N,USB_DM_RAW*%
X16000000Y-10000000D03*
%TO.P,D1,4*%
%TO.N,USB_DM*%
X18000000Y-10000000D03*
%TO.P,D1,5*%
%TO.N,GND*%
X20000000Y-10000000D03*
%TD*%
%TO.P,U1,1*%
%TO.N,V3V3*%
X25000000Y-28000000D03*
%TO.P,U1,2*%
%TO.N,GND*%
X27000000Y-28000000D03*
%TO.P,U1,3*%
%TO.N,V3V3*%
X29000000Y-28000000D03*
%TO.P,U1,4*%
X31000000Y-28000000D03*
%TO.P,U1,5*%
%TO.N,I2C_SCL*%
X33000000Y-28000000D03*
%TO.P,U1,6*%
%TO.N,I2C_SDA*%
X35000000Y-28000000D03*
%TO.P,U1,7*%
%TO.N,CHG_STAT*%
X37000000Y-28000000D03*
%TO.P,U1,8*%
%TO.N,TEMP_INT*%
X25000000Y-30000000D03*
%TO.P,U1,9*%
%TO.N,FUEL_ALRT*%
X27000000Y-30000000D03*
%TO.P,U1,10*%
%TO.N,LED_BLE*%
X29000000Y-30000000D03*
%TO.P,U1,11*%
%TO.N,NRST*%
X31000000Y-30000000D03*
%TO.P,U1,12*%
%TO.N,UART_TX*%
X33000000Y-30000000D03*
%TO.P,U1,13*%
%TO.N,UART_RX*%
X35000000Y-30000000D03*
%TO.P,U1,14*%
%TO.N,SWDCLK*%
X37000000Y-30000000D03*
%TO.P,U1,15*%
%TO.N,SWDIO*%
X25000000Y-32000000D03*
%TO.P,U1,16*%
%TO.N,SWO*%
X27000000Y-32000000D03*
%TO.P,U1,17*%
%TO.N,USB_DP*%
X29000000Y-32000000D03*
%TO.P,U1,18*%
%TO.N,USB_DM*%
X31000000Y-32000000D03*
%TD*%
%TO.P,C3,1*%
%TO.N,VBAT*%
X44000000Y-10000000D03*
%TO.P,C3,2*%
%TO.N,GND*%
X44000000Y-13000000D03*
%TD*%
%TO.P,R4,1*%
%TO.N,CHG_ISET*%
X37000000Y-4000000D03*
%TO.P,R4,2*%
%TO.N,GND*%
X39000000Y-4000000D03*
%TD*%
%TO.P,J2,1*%
%TO.N,GND*%
X6000000Y-28000000D03*
%TO.P,J2,2*%
%TO.N,SWDIO*%
X8000000Y-28000000D03*
%TO.P,J2,3*%
%TO.N,SWO*%
X10000000Y-28000000D03*
%TO.P,J2,4*%
%TO.N,NRST*%
X12000000Y-28000000D03*
%TO.P,J2,5*%
%TO.N,UART_TX*%
X14000000Y-28000000D03*
%TO.P,J2,6*%
%TO.N,V3V3*%
X16000000Y-28000000D03*
%TO.P,J2,7*%
%TO.N,SWDCLK*%
X18000000Y-28000000D03*
%TO.P,J2,8*%
%TO.N,UART_RX*%
X6000000Y-30000000D03*
%TD*%
%TO.P,C4,1*%
%TO.N,V3V3*%
X19000000Y-19000000D03*
%TO.P,C4,2*%
%TO.N,GND*%
X21000000Y-19000000D03*
%TD*%
%TO.P,U5,1*%
%TO.N,I2C_SDA*%
X10000000Y-24000000D03*
%TO.P,U5,2*%
%TO.N,GND*%
X12000000Y-24000000D03*
%TO.P,U5,3*%
%TO.N,TEMP_INT*%
X14000000Y-24000000D03*
%TO.P,U5,4*%
%TO.N,I2C_SCL*%
X16000000Y-24000000D03*
%TO.P,U5,5*%
%TO.N,V3V3*%
X18000000Y-24000000D03*
%TO.P,U5,6*%
X20000000Y-24000000D03*
%TO.P,U5,7*%
%TO.N,GND*%
X22000000Y-24000000D03*
%TO.P,U5,8*%
X10000000Y-26000000D03*
%TD*%
%TO.P,F1,1*%
%TO.N,USB_VBUS*%
X17000000Y-4000000D03*
%TO.P,F1,2*%
%TO.N,USB_FUSED*%
X19000000Y-4000000D03*
%TD*%
%TO.P,J1,1*%
%TO.N,USB_VBUS*%
X12000000Y-4000000D03*
%TO.P,J1,2*%
%TO.N,GND*%
X14000000Y-4000000D03*
%TO.P,J1,3*%
%TO.N,USB_DP_RAW*%
X16000000Y-4000000D03*
%TO.P,J1,4*%
%TO.N,USB_DM_RAW*%
X18000000Y-4000000D03*
%TD*%
%TO.P,BT1,1*%
%TO.N,VBAT*%
X43000000Y-4000000D03*
%TO.P,BT1,2*%
%TO.N,GND*%
X43000000Y-7000000D03*
%TD*%
%TO.P,C1,1*%
%TO.N,V3V3*%
X25000000Y-12000000D03*
%TO.P,C1,2*%
%TO.N,GND*%
X27000000Y-12000000D03*
%TD*%
D11*
%TO.N,CHG_ISET*%
X26688500Y-17129800D03*
%TO.N,FUEL_ALRT*%
X43010200Y-16324500D03*
%TO.N,USB_DM*%
X25000500Y-13470600D03*
%TO.N,USB_DP*%
X24212300Y-16032900D03*
%TD*%
%TO.N,CHG_ISET*%
D12*
X27859700Y-17129800D02*
X26688500Y-17129800D01*
X40723000Y-5683000D02*
X40723000Y-9284000D01*
X34714000Y-15293000D02*
X29696500Y-15293000D01*
X40723000Y-9284000D02*
X34714000Y-15293000D01*
X39760300Y-4720300D02*
X40723000Y-5683000D01*
X37720300Y-4720300D02*
X39760300Y-4720300D01*
X29696500Y-15293000D02*
X27859700Y-17129800D01*
X37000000Y-4000000D02*
X37720300Y-4720300D01*
%TO.N,CHG_STAT*%
X37000000Y-26000000D02*
X30000000Y-19000000D01*
X37000000Y-28000000D02*
X37000000Y-26000000D01*
%TO.N,FUEL_ALRT*%
X43010200Y-16324500D02*
X40000000Y-13314300D01*
X40000000Y-13314300D02*
X40000000Y-12000000D01*
%TO.N,I2C_SCL*%
X33000000Y-28000000D02*
X31401900Y-26401900D01*
X26439400Y-16528100D02*
X26307400Y-16660100D01*
X31401900Y-26401900D02*
X18401900Y-26401900D01*
X26307400Y-16660100D02*
X15660100Y-16660100D01*
X40000000Y-9000000D02*
X35025000Y-9000000D01*
X18401900Y-26401900D02*
X16000000Y-24000000D01*
X15660100Y-16660100D02*
X12000000Y-13000000D01*
X27496900Y-16528100D02*
X26439400Y-16528100D01*
X35025000Y-9000000D02*
X27496900Y-16528100D01*
%TO.N,I2C_SDA*%
X35000000Y-28000000D02*
X30298300Y-23298300D01*
X30298300Y-23298300D02*
X10701700Y-23298300D01*
X40000000Y-6000000D02*
X20954900Y-6000000D01*
X10701700Y-23298300D02*
X10000000Y-24000000D01*
X20954900Y-6000000D02*
X17000000Y-9954900D01*
X17000000Y-9954900D02*
X17000000Y-13000000D01*
%TO.N,NRST*%
X30312500Y-30687500D02*
X14687500Y-30687500D01*
X14687500Y-30687500D02*
X12000000Y-28000000D01*
X31000000Y-30000000D02*
X30312500Y-30687500D01*
%TO.N,SWDCLK*%
X18000000Y-28000000D02*
X18676700Y-28676700D01*
X35676700Y-28676700D02*
X37000000Y-30000000D01*
X18676700Y-28676700D02*
X35676700Y-28676700D01*
%TO.N,SWDIO*%
X12000000Y-32000000D02*
X25000000Y-32000000D01*
X8000000Y-28000000D02*
X12000000Y-32000000D01*
%TO.N,SWO*%
X26145400Y-31145400D02*
X13145400Y-31145400D01*
X13145400Y-31145400D02*
X10000000Y-28000000D01*
X27000000Y-32000000D02*
X26145400Y-31145400D01*
%TO.N,TEMP_INT*%
X13280600Y-24719400D02*
X13280600Y-28245700D01*
X13280600Y-28245700D02*
X15034900Y-30000000D01*
X15034900Y-30000000D02*
X25000000Y-30000000D01*
X14000000Y-24000000D02*
X13280600Y-24719400D01*
%TO.N,UART_RX*%
X32261600Y-32738400D02*
X8738400Y-32738400D01*
X35000000Y-30000000D02*
X32261600Y-32738400D01*
X8738400Y-32738400D02*
X6000000Y-30000000D01*
%TO.N,UART_TX*%
X33000000Y-30000000D02*
X32311000Y-29311000D01*
X15311000Y-29311000D02*
X14000000Y-28000000D01*
X32311000Y-29311000D02*
X15311000Y-29311000D01*
%TO.N,USB_DM*%
X18000000Y-10000000D02*
X21470600Y-13470600D01*
X21470600Y-13470600D02*
X25000500Y-13470600D01*
%TO.N,USB_DM_RAW*%
X16000000Y-10000000D02*
X16000000Y-6000000D01*
X16000000Y-6000000D02*
X18000000Y-4000000D01*
%TO.N,USB_DP*%
X14000000Y-10000000D02*
X14000000Y-10988900D01*
X19044000Y-16032900D02*
X24212300Y-16032900D01*
X14000000Y-10988900D02*
X19044000Y-16032900D01*
%TO.N,USB_FUSED*%
X24000000Y-4000000D02*
X19000000Y-4000000D01*
%TO.N,USB_PROT*%
X29280600Y-4719400D02*
X26719400Y-4719400D01*
X26719400Y-4719400D02*
X26000000Y-4000000D01*
X30000000Y-4000000D02*
X29280600Y-4719400D01*
%TO.N,USB_VBUS*%
X17000000Y-4000000D02*
X16274300Y-3274300D01*
X12725700Y-3274300D02*
X12000000Y-4000000D01*
X16274300Y-3274300D02*
X12725700Y-3274300D01*
%TO.N,V3V3*%
X25000000Y-28000000D02*
X24293500Y-27293500D01*
X27000000Y-19000000D02*
X26296100Y-18296100D01*
X31000000Y-28000000D02*
X29000000Y-28000000D01*
X27000000Y-10000000D02*
X25000000Y-12000000D01*
X10682400Y-12317600D02*
X10000000Y-13000000D01*
X28258800Y-27258800D02*
X29000000Y-28000000D01*
X32000000Y-11000000D02*
X31000000Y-11000000D01*
X31000000Y-11000000D02*
X30000000Y-10000000D01*
X24293500Y-27293500D02*
X16706500Y-27293500D01*
X25000000Y-28000000D02*
X25741200Y-27258800D01*
X25741200Y-27258800D02*
X28258800Y-27258800D01*
X15000000Y-13000000D02*
X14317600Y-12317600D01*
X16706500Y-27293500D02*
X16000000Y-28000000D01*
X40000000Y-27000000D02*
X38000000Y-25000000D01*
X26296100Y-18296100D02*
X19703900Y-18296100D01*
X19703900Y-18296100D02*
X19000000Y-19000000D01*
X30000000Y-10000000D02*
X27000000Y-10000000D01*
X20000000Y-24000000D02*
X18000000Y-24000000D01*
X14317600Y-12317600D02*
X10682400Y-12317600D01*
%TO.N,VBAT*%
X31000000Y-17000000D02*
X30000000Y-16000000D01*
X32000000Y-17000000D02*
X31000000Y-17000000D01*
X33000000Y-18000000D02*
X32000000Y-17000000D01*
X40000000Y-18000000D02*
X33000000Y-18000000D01*
%TD*%
M02*
